Coordinates
version=1
nRows=18
nColumns=22
inDegrees=yes

Units are S.I. units (second, meters, Newtons, ...)
If the header above contains a line with 'inDegrees', this indicates whether rotational values are in degrees (yes) or radians (no).

endheader
time	pelvis_tilt	pelvis_list	pelvis_rotation	pelvis_tx	pelvis_ty	pelvis_tz	hip_flexion_r	hip_adduction_r	hip_rotation_r	knee_angle_r	ankle_angle_r	subtalar_angle_r	hip_flexion_l	hip_adduction_l	hip_rotation_l	knee_angle_l	ankle_angle_l	subtalar_angle_l	lumbar_extension	lumbar_bending	lumbar_rotation
      3.64000000	     -0.65170277	      4.00499836	    180.42093679	      0.13410339	      1.05283264	     -0.47233311	     -7.51282962	      0.42255446	    -10.37429662	    -13.95129996	     18.59883098	      3.90427292	     27.83975768	     -4.47513971	    -20.09355352	    -26.26464248	      6.49556198	     -7.98603741	     -7.00719928	     -3.09702684	      1.39730968
      3.65000000	     -0.49770320	      3.74728977	    180.59294329	      0.12560311	      1.05108864	     -0.47057085	     -7.72458665	      0.05414464	    -10.63618071	    -14.24852404	     18.93970542	      4.10869413	     27.70761703	     -4.19875806	    -20.92952686	    -23.78980598	      6.43935695	     -7.87168112	     -6.84971729	     -3.40551476	      1.47335033
      3.66000000	     -0.33223479	      3.49970299	    180.74431910	      0.11697782	      1.04935740	     -0.46865201	     -7.91238967	     -0.32196406	    -10.88581867	    -14.58289418	     19.22225420	      4.36349568	     27.54623588	     -3.88451478	    -21.54422254	    -21.40802605	      6.39673267	     -7.80320327	     -6.67315124	     -3.70116280	      1.53537989
      3.67000000	     -0.16139106	      3.27353873	    180.86969443	      0.10817646	      1.04765073	     -0.46661599	     -8.08571412	     -0.69211851	    -11.10991020	    -14.95154260	     19.45611547	      4.64476124	     27.35842480	     -3.57125410	    -21.95987274	    -19.18387244	      6.37535552	     -7.80646041	     -6.47469726	     -3.97447406	      1.60351895
      3.68000000	     -0.02383504	      3.06258901	    180.97863843	      0.09913351	      1.04604696	     -0.46446542	     -8.29726019	     -1.05600230	    -11.26761282	    -15.34017357	     19.59024250	      5.01317132	     27.11182029	     -3.27630325	    -22.23721700	    -17.18539034	      6.37878249	     -7.90904534	     -6.29041002	     -4.22918183	      1.62516416
      3.69000000	      0.08789171	      2.87803781	    181.06880821	      0.08981581	      1.04453115	     -0.46221259	     -8.53661763	     -1.40407656	    -11.38298536	    -15.75275605	     19.65184582	      5.42754707	     26.84229468	     -3.03910085	    -22.45390245	    -15.50851106	      6.39323576	     -8.10814929	     -6.10185144	     -4.45565611	      1.65755380
      3.70000000	      0.16161074	      2.71401881	    181.14677848	      0.08018928	      1.04313714	     -0.45983797	     -8.81834862	     -1.74087226	    -11.43091318	    -16.19120115	     19.62208773	      5.90372591	     26.56133216	     -2.87152037	    -22.70690272	    -14.23516928	      6.41140553	     -8.39536083	     -5.91718406	     -4.65791303	      1.68202344
      3.71000000	      0.19209416	      2.56084328	    181.21438616	      0.07024731	      1.04189158	     -0.45731650	     -9.14243050	     -2.07840440	    -11.40972018	    -16.66578770	     19.50144252	      6.45442949	     26.28155962	     -2.77415923	    -23.08691025	    -13.42009415	      6.41496329	     -8.75241693	     -5.74120010	     -4.84458639	      1.71036715
      3.72000000	      0.18616827	      2.40380325	    181.29390946	      0.05997398	      1.04081782	     -0.45459220	     -9.51339874	     -2.42521208	    -11.30144067	    -17.15916871	     19.26514463	      7.10173399	     26.02120963	     -2.72629186	    -23.65685257	    -13.08315949	      6.35945883	     -9.15755627	     -5.56516103	     -5.02923816	      1.69776327
      3.73000000	      0.14982250	      2.23201919	    181.37832325	      0.04940400	      1.03993810	     -0.45163474	     -9.90147447	     -2.80018116	    -11.11897309	    -17.70951313	     18.93339721	      7.82273888	     25.77551625	     -2.71230042	    -24.45661648	    -13.18390572	      6.20472657	     -9.55769577	     -5.38752128	     -5.22208111	      1.67853522
      3.74000000	      0.08513060	      2.03258083	    181.48208290	      0.03855811	      1.03929567	     -0.44840611	    -10.30129640	     -3.21299881	    -10.86791856	    -18.32088381	     18.48310304	      8.63369034	     25.52492020	     -2.70038941	    -25.46776004	    -13.64035939	      5.92239594	     -9.92876176	     -5.21125922	     -5.43711425	      1.64488511
      3.75000000	     -0.00026148	      1.79999018	    181.61673071	      0.02748811	      1.03893794	     -0.44485763	    -10.69066003	     -3.66962273	    -10.56784336	    -19.01218854	     17.88993625	      9.53236856	     25.24025275	     -2.65382055	    -26.61662813	    -14.31566445	      5.49420659	    -10.24559631	     -5.03660323	     -5.67609833	      1.59249836
      3.76000000	     -0.09013932	      1.52093209	    181.79353525	      0.01624965	      1.03889732	     -0.44098290	    -11.04616452	     -4.17572460	    -10.21721870	    -19.78712312	     17.15775805	     10.49654314	     24.90672033	     -2.52708193	    -27.80736453	    -15.07617111	      4.95297614	    -10.49962100	     -4.85486055	     -5.95800169	      1.51225375
      3.77000000	     -0.17908537	      1.20479535	    182.03088563	      0.00493763	      1.03923091	     -0.43672201	    -11.34094201	     -4.72064587	     -9.84572569	    -20.67213073	     16.22466568	     11.53844560	     24.49967650	     -2.27783577	    -28.85342638	    -15.77778964	      4.34220343	    -10.71790759	     -4.67590371	     -6.26432455	      1.40381997
      3.78000000	     -0.24965848	      0.85122242	    182.33361402	     -0.00639137	      1.03993196	     -0.43208123	    -11.55236229	     -5.29665773	     -9.44259053	    -21.66513248	     15.10764934	     12.60835849	     24.03697989	     -1.88345335	    -29.65910400	    -16.36202879	      3.77407514	    -10.93106480	     -4.48826545	     -6.59762416	      1.26678276
      3.79000000	     -0.29851472	      0.48210891	    182.70313920	     -0.01767264	      1.04099982	     -0.42707600	    -11.65903363	     -5.87932495	     -9.01617373	    -22.78299506	     13.77588099	     13.67233572	     23.52822720	     -1.35471769	    -30.15500649	    -16.79839301	      3.31355089	    -11.16738481	     -4.29629082	     -6.93384146	      1.10907266
      3.80000000	     -0.33017585	      0.12045805	    183.12616841	     -0.02884981	      1.04240500	     -0.42173561	    -11.63955160	     -6.45127982	     -8.58155715	    -24.05416484	     12.20553705	     14.70028675	     22.97947366	     -0.72106829	    -30.31923186	    -17.08954845	      2.98250269	    -11.43144095	     -4.11213100	     -7.24600599	      0.97759138
      3.81000000	     -0.36234319	     -0.18274376	    183.60541722	     -0.03991533	      1.04413190	     -0.41613390	    -11.52622862	     -6.93905091	     -8.07983371	    -25.43158602	     10.35949349	     15.69801145	     22.39043697	     -0.05359754	    -30.15653622	    -17.26612789	      2.79228567	    -11.71725144	     -3.95349212	     -7.48152617	      0.84916270
